#!OML:ASF X:\für Bonn\!DataBase\2005_08_12_Daniel\c3d\Daniel.ASF
:FULLY-SPECIFIED
:DEGREES
80
root 10.6412 16.0471 11.1603 897.785 -51.5059 -186.031
lowerback 40.0356 5.43655 -8.47337
upperback 8.03396 0.301596 -5.81665
thorax -10.4034 -0.561989 -1.88218
lowerneck 0.930526 -0.449258 -3.32616
upperneck 1.1402 -0.673563 4.56267
head 0.224409 -0.349952 1.98986
rclavicle 5.80451e-014 2.38542e-014
rhumerus -37.5621 -2.00933 -86.5118
rradius 65.9211
rwrist 9.46994
rhand -32.7409 7.00089
rfingers 7.12502
rthumb -5.96407 -22.8952
lclavicle 5.80451e-014 2.38542e-014
lhumerus -28.3906 22.8427 76.8885
lradius 69.4696
lwrist -29.4165
lhand -27.4931 3.50397
lfingers 7.12502
lthumb -0.896376 33.4818
rfemur 12.3905 -5.24873 16.9588
rtibia 57.8346
rfoot 1.86779 1.13332
rtoes -11.9275
lfemur -35.4252 5.39704 -26.6434
ltibia 59.5279
lfoot -18.7305 -18.0567
ltoes -7.29456
81
root 10.5528 16.0715 11.0877 897.816 -51.5119 -185.979
lowerback 39.9951 5.39974 -8.46373
upperback 8.02209 0.270344 -5.8168
thorax -10.4039 -0.573787 -1.87311
lowerneck 0.94862 -0.422727 -3.31602
upperneck 1.17951 -0.639994 4.55109
head 0.232049 -0.33338 1.98428
rclavicle 9.46215e-014 -3.18055e-015
rhumerus -37.4185 -2.09928 -86.4374
rradius 65.727
rwrist 9.47718
rhand -32.6084 7.12155
rfingers 7.12502
rthumb -5.83611 -22.7781
lclavicle 9.46215e-014 -3.18055e-015
lhumerus -28.1896 22.7277 76.9797
lradius 69.4235
lwrist -29.3995
lhand -27.299 3.54722
lfingers 7.12502
lthumb -0.708858 33.5258
rfemur 11.3904 -5.29859 16.8658
rtibia 59.068
rfoot 1.80527 1.31452
rtoes -10.9458
lfemur -35.0278 5.27864 -26.5975
ltibia 59.511
lfoot -19.0675 -17.9031
ltoes -7.11229
82
root 10.4651 16.094 11.0176 897.815 -51.5138 -185.901
lowerback 39.9562 5.34132 -8.40487
upperback 8.0267 0.229658 -5.82742
thorax -10.3875 -0.592258 -1.89577
lowerneck 0.963179 -0.394231 -3.32563
upperneck 1.17159 -0.602498 4.56707
head 0.225634 -0.314963 1.99124
rclavicle 2.46493e-014 -7.15625e-014
rhumerus -37.2659 -2.20147 -86.3924
rradius 65.5539
rwrist 9.48896
rhand -32.5414 7.24308
rfingers 7.12502
rthumb -5.77144 -22.6583
lclavicle 2.46493e-014 -7.15625e-014
lhumerus -28.0028 22.5563 77.0704
lradius 69.4149
lwrist -29.3335
lhand -27.2194 3.64427
lfingers 7.12502
lthumb -0.631962 33.6231
rfemur 10.3623 -5.38741 16.7426
rtibia 60.3036
rfoot 1.54301 1.64027
rtoes -10.0729
lfemur -34.6299 5.13208 -26.5447
ltibia 59.4916
lfoot -19.337 -17.6995
ltoes -6.7623
83
root 10.3777 16.1156 10.9481 897.776 -51.4854 -185.814
lowerback 39.9365 5.29561 -8.35732
upperback 8.02652 0.199033 -5.82099
thorax -10.3824 -0.605968 -1.89914
lowerneck 0.977341 -0.361067 -3.37555
upperneck 1.19254 -0.559679 4.57046
head 0.228124 -0.293884 2.00135
rclavicle 5.24792e-014 9.85972e-014
rhumerus -37.1039 -2.30724 -86.3367
rradius 65.3592
rwrist 9.57878
rhand -32.4579 7.34038
rfingers 7.12502
rthumb -5.6908 -22.5632
lclavicle 5.24792e-014 9.85972e-014
lhumerus -27.8416 22.3586 77.1609
lradius 69.4067
lwrist -29.2386
lhand -27.127 3.7015
lfingers 7.12502
lthumb -0.542722 33.6805
rfemur 9.32372 -5.45698 16.6217
rtibia 61.5241
rfoot 1.10841 2.0447
rtoes -9.41516
lfemur -34.199 4.9566 -26.4803
ltibia 59.4745
lfoot -19.5957 -17.4168
ltoes -6.26388
84
root 10.2899 16.1364 10.8793 897.7 -51.4634 -185.756
lowerback 39.9509 5.2464 -8.29469
upperback 8.04862 0.158687 -5.82778
thorax -10.3636 -0.627606 -1.92052
lowerneck 1.02118 -0.335151 -3.40164
upperneck 1.1689 -0.525846 4.58007
head 0.212003 -0.277701 2.00925
rclavicle 1.59028e-015 -6.36111e-015
rhumerus -36.9342 -2.4151 -86.2908
rradius 65.1739
rwrist 9.62285
rhand -32.3997 7.53103
rfingers 7.12502
rthumb -5.63464 -22.3741
lclavicle 1.59028e-015 -6.36111e-015
lhumerus -27.6683 22.189 77.2473
lradius 69.3956
lwrist -29.1475
lhand -27.0542 3.72342
lfingers 7.12502
lthumb -0.472429 33.7026
rfemur 8.32491 -5.59328 16.4195
rtibia 62.7246
rfoot 0.509297 2.59024
rtoes -9.21764
lfemur -33.6999 4.76613 -26.4385
ltibia 59.4573
lfoot -19.8457 -17.1419
ltoes -5.76358
85
root 10.2031 16.1529 10.8128 897.564 -51.4174 -185.664
lowerback 39.9962 5.18409 -8.18634
upperback 8.0694 0.114394 -5.8407
thorax -10.3576 -0.65189 -1.97052
lowerneck 1.03183 -0.3055 -3.49825
upperneck 1.18896 -0.488793 4.64496
head 0.21536 -0.259711 2.0479
rclavicle 5.88403e-014 2.38542e-014
rhumerus -36.8181 -2.47799 -86.2788
rradius 65.0524
rwrist 9.68139
rhand -32.3561 7.6887
rfingers 7.12502
rthumb -5.5926 -22.2175
lclavicle 5.88403e-014 2.38542e-014
lhumerus -27.5322 21.987 77.3067
lradius 69.4155
lwrist -29
lhand -26.9976 3.74393
lfingers 7.12502
lthumb -0.417724 33.7233
rfemur 7.31107 -5.65488 16.292
rtibia 63.903
rfoot -0.248418 3.07095
rtoes -9.44384
lfemur -33.1878 4.5455 -26.3751
ltibia 59.4666
lfoot -20.139 -16.8053
ltoes -5.42128
